PathFileType	4	(X/Y/Z)	E:\3-PhD\Data\MocapData\ElaboratedData\012\pre\dynamicElaborations\Run_baselineA1\Run_baselineA1.trc
DataRate	CameraRate	NumFrames	NumMarkers	Units	OrigDataRate	OrigDataStartFrame	OrigNumFrames
200	200	4	56	mm	200	8.290000e+02	106
Frame#	Time	FHD			LBHD			RBHD			C7			T10			CLAV			LSHO			LUUPA			LMUPA			LDUPA			LLEP			LMEP			LRAD			LUL			LRFIN			RSHO			RUPA1			RMUPA			RDUPA			RLEP			RMEP			RRAD			RUL			RUFIN			LASI			RASI			USACR			LSACR			RSACR			LTHI1			LTHI2			LTHI3			LTHI4			LLFC			LTIB1			LTIB2			LTIB3			LTIB4			LHEE			LMT1			LMT5			LMT2			RTHI			RTHI2			RTHI3			RTHI4			RLFC			RTIB1			RTIB2			RTIB3			RTIB4			RLMAL			RHEE			RMT1			RMT2			RMT5		
		X1	Y1	Z1	X2	Y2	Z2	X3	Y3	Z3	X4	Y4	Z4	X5	Y5	Z5	X6	Y6	Z6	X7	Y7	Z7	X8	Y8	Z8	X9	Y9	Z9	X10	Y10	Z10	X11	Y11	Z11	X12	Y12	Z12	X13	Y13	Z13	X14	Y14	Z14	X15	Y15	Z15	X16	Y16	Z16	X17	Y17	Z17	X18	Y18	Z18	X19	Y19	Z19	X20	Y20	Z20	X21	Y21	Z21	X22	Y22	Z22	X23	Y23	Z23	X24	Y24	Z24	X25	Y25	Z25	X26	Y26	Z26	X27	Y27	Z27	X28	Y28	Z28	X29	Y29	Z29	X30	Y30	Z30	X31	Y31	Z31	X32	Y32	Z32	X33	Y33	Z33	X34	Y34	Z34	X35	Y35	Z35	X36	Y36	Z36	X37	Y37	Z37	X38	Y38	Z38	X39	Y39	Z39	X40	Y40	Z40	X41	Y41	Z41	X42	Y42	Z42	X43	Y43	Z43	X44	Y44	Z44	X45	Y45	Z45	X46	Y46	Z46	X47	Y47	Z47	X48	Y48	Z48	X49	Y49	Z49	X50	Y50	Z50	X51	Y51	Z51	X52	Y52	Z52	X53	Y53	Z53	X54	Y54	Z54	X55	Y55	Z55	X56	Y56	Z56	
842	4.205000	-2835.393627	1711.583968	433.881872	-2993.269262	1720.213016	334.991423	-2979.909908	1701.906333	481.646315	-3065.990697	1559.699082	388.060222	-3253.002346	1268.417818	333.693292	-2963.685990	1431.834347	405.985211	-2937.647130	1548.433940	275.897151	-2936.300285	1356.727528	147.930347	-2915.416580	1324.162889	177.403952	-2943.117117	1288.155120	136.140738	-2937.806841	1195.457952	136.023573	-3023.930436	1190.761226	167.337170	-2879.285996	1059.186410	376.481769	-2850.828231	1014.201070	320.273404	-2824.523494	1013.678329	430.730631	-3019.715228	1487.343589	570.673924	-3253.713164	1419.635758	616.250639	-3250.640583	1371.723528	626.093721	-3307.343271	1372.719851	616.557992	-3358.300658	1329.188513	626.265364	-3358.283613	1299.038651	549.442678	-3270.042824	1066.766344	695.168142	-3337.859502	1061.434230	731.818293	-3255.260549	989.551228	738.975618	-3189.781717	995.372739	223.075890	-3188.565149	1015.271674	451.616931	-3323.471148	1144.309481	340.540091	-3348.634383	1114.995241	308.107582	-3347.573134	1118.633040	368.005883	-3384.266781	775.711845	154.081226	-3379.866831	691.286931	163.110516	-3337.264204	675.622350	175.044610	-3426.271245	653.303909	167.870359	-3511.455508	520.976271	189.960496	-3664.966442	421.994152	267.093661	-3722.662419	445.395362	209.831364	-3712.066585	408.378735	241.019400	-3786.284999	394.393336	277.500381	-3953.304406	470.119789	314.390387	-3979.463585	265.513912	361.788806	-4012.437646	280.893148	272.897899	-3986.129279	248.780410	313.194192	-3166.149856	749.743441	518.817434	-3103.158139	727.510817	515.195353	-3074.071860	747.623717	509.532955	-3084.002931	647.771363	493.223213	-3024.947999	547.660741	475.704810	-2967.359098	428.419805	425.416378	-3035.239082	343.919396	449.668163	-2989.466160	343.456983	436.186624	-2977.574293	300.725425	399.990248	-3034.117508	123.125814	375.751820	-3065.569540	74.185877	325.342942	-2852.015541	146.016397	320.059913	-2853.350293	137.857982	362.140394	-2884.236864	88.572121	401.168245	
843	4.210000	-2808.141478	1711.545483	434.019194	-2966.187277	1719.666915	335.345342	-2952.225245	1701.629878	482.726978	-3038.079956	1559.333170	388.754054	-3225.593109	1269.315830	333.847423	-2936.173239	1431.087039	405.865350	-2910.002504	1546.767047	274.366138	-2914.247301	1355.421055	144.896677	-2893.382645	1322.156850	173.974953	-2922.404000	1287.044238	132.876060	-2918.683112	1194.209733	131.862414	-3004.205827	1191.071478	165.028860	-2859.331067	1048.201975	366.628706	-2832.987985	1004.737325	308.293056	-2804.862919	999.192223	418.090643	-2992.710046	1485.321434	571.425480	-3226.136539	1410.038802	615.220450	-3221.216590	1362.477754	625.393537	-3278.089910	1361.176872	615.136799	-3327.621424	1316.289952	624.362690	-3326.316984	1287.528628	546.857970	-3230.750199	1055.450723	687.261329	-3298.260299	1047.394565	724.123195	-3213.483934	977.983771	729.265999	-3160.625073	996.585184	222.062912	-3161.941281	1015.348572	451.032779	-3296.338358	1143.784910	338.867488	-3321.397902	1114.344391	306.096106	-3320.892684	1117.970126	365.971641	-3350.852551	772.178329	152.319149	-3344.026339	687.778182	161.041812	-3301.092382	673.334994	173.001803	-3389.347509	648.564400	165.704939	-3470.896165	514.736259	187.978932	-3625.935134	421.225881	265.043214	-3683.583184	447.011414	209.444394	-3674.018021	409.815567	240.522899	-3749.114311	398.522081	276.716634	-3913.028487	480.711105	315.733660	-3944.637071	275.894098	360.851373	-3977.850736	293.703736	273.103107	-3952.449364	260.623109	313.206207	-3143.282313	746.568263	517.556005	-3081.159511	722.850012	514.271115	-3051.498397	742.358764	509.607167	-3062.595028	643.105377	492.982384	-3005.925622	541.352030	474.938093	-2949.832217	421.163155	425.148615	-3019.143615	337.980768	448.910939	-2973.768598	336.632901	435.295838	-2961.891000	293.751821	399.303969	-3021.035545	117.454750	374.050922	-3052.809807	70.042276	322.399739	-2837.785646	136.686173	320.768784	-2840.087480	128.682191	362.871561	-2872.756164	80.457284	401.324805	
844	4.215000	-2780.955653	1711.262511	434.083792	-2939.190129	1718.818342	335.633542	-2924.653560	1701.091945	483.713210	-3010.368069	1558.694346	389.563670	-3198.221590	1269.785290	334.062978	-2908.710372	1430.083699	405.654912	-2882.656024	1544.953163	272.807743	-2892.726407	1354.114943	141.674302	-2871.895245	1320.128862	170.321602	-2902.245046	1285.979907	129.388851	-2900.082078	1193.093633	127.395112	-2984.847932	1191.354359	162.605752	-2839.758633	1037.517798	355.970607	-2815.614174	995.711622	295.551325	-2785.619177	985.173840	404.389882	-2965.622747	1482.950384	572.163644	-3198.119120	1399.966985	614.251126	-3191.234679	1352.806687	624.851505	-3248.141349	1349.242054	614.048587	-3296.298476	1302.844886	622.538631	-3293.851738	1275.587060	544.344779	-3190.480949	1044.097002	678.938094	-3257.524022	1033.171726	716.093289	-3170.567827	966.531722	718.978512	-3131.531920	997.420134	221.087426	-3135.235687	1015.243944	450.528692	-3269.181961	1142.864702	337.119169	-3294.095623	1113.321212	304.061572	-3294.269670	1116.966177	363.789579	-3317.127798	768.256968	150.701618	-3307.732255	683.929404	159.077896	-3264.474934	670.762899	171.148272	-3351.894956	643.481814	163.643213	-3429.545910	508.208860	186.049482	-3586.097132	420.172909	263.154896	-3643.214187	448.084097	208.902658	-3634.767391	410.869807	239.877902	-3710.553923	402.161744	275.669683	-3871.425037	490.389390	316.819956	-3908.111948	285.501891	359.297608	-3941.408859	305.716247	272.292449	-3917.040637	271.573155	312.179506	-3120.522995	743.361516	516.076324	-3059.335504	718.145877	513.036953	-3029.089478	737.014385	509.538085	-3041.406236	638.393504	492.515715	-2987.216842	534.983864	474.054627	-2933.237526	413.691280	424.654534	-3004.156647	332.126301	448.223083	-2959.306233	329.728788	434.263303	-2947.804950	286.664765	398.461361	-3010.164257	112.028192	372.525637	-3042.896216	66.278670	319.802238	-2826.239525	126.783784	320.849813	-2829.374297	119.116178	362.993090	-2863.866603	72.457072	401.356231	
845	4.220000	-2753.842967	1710.766341	434.071363	-2912.288147	1717.694769	335.868345	-2897.230135	1700.280835	484.519157	-2982.865683	1557.793200	390.479695	-3170.869151	1269.798414	334.295100	-2881.294196	1428.840372	405.350522	-2855.624020	1543.031838	271.240476	-2871.701713	1352.876118	138.323545	-2850.929233	1318.154417	166.495069	-2882.596384	1285.024800	125.737307	-2881.977146	1192.175808	122.646847	-2965.827230	1191.657572	160.055351	-2820.573679	1027.251575	344.550752	-2798.697040	987.224738	282.112050	-2766.816169	971.758487	389.710725	-2938.455691	1480.248996	572.878870	-3169.657696	1389.481449	613.331268	-3160.690409	1342.771333	624.426453	-3217.521840	1336.993020	613.244385	-3264.302185	1288.945378	620.798804	-3260.905283	1263.299328	541.922414	-3149.221757	1032.885301	670.196433	-3215.597029	1018.929744	707.732578	-3126.489454	955.394694	708.115011	-3102.513664	997.840225	220.173860	-3108.485427	1014.946565	450.106919	-3241.988594	1141.585184	335.300566	-3266.690785	1111.963948	302.036220	-3267.556620	1115.675357	361.595024	-3283.095309	763.998856	149.227441	-3271.002426	679.821116	157.219145	-3227.432787	667.970298	169.474870	-3313.925884	638.127677	161.684473	-3387.422744	501.483141	184.178792	-3545.369859	418.931092	261.537373	-3601.601828	448.600296	208.194564	-3594.335312	411.520971	239.118946	-3670.631576	405.331935	274.441620	-3828.682894	499.117609	317.551651	-3870.005064	294.235773	357.103444	-3903.101166	316.754686	270.481726	-3879.878274	281.508777	310.163684	-3097.935118	740.074064	514.469265	-3037.675225	713.367417	511.662262	-3006.903906	731.519937	509.309362	-3020.553095	633.567776	491.810230	-2968.843664	528.556571	473.055230	-2917.488380	406.109301	423.861122	-2990.125498	326.392196	447.522341	-2945.885790	322.841500	433.035960	-2935.130440	279.591385	397.376937	-3001.172842	106.968906	371.130306	-3035.474921	62.925665	317.529879	-2817.115415	116.678205	320.261664	-2820.932194	109.560381	362.471420	-2857.177716	64.973680	401.251994	
